# Blender v2.82 (sub 7) OBJ File: 'arrow.blend'
# www.blender.org
mtllib arrow.mtl
o 锥体
v 0.000000 2.000000 -0.500000
v 0.097545 2.000000 -0.490393
v 0.191342 2.000000 -0.461940
v 0.277785 2.000000 -0.415735
v 0.353553 2.000000 -0.353553
v 0.415735 2.000000 -0.277785
v 0.461940 2.000000 -0.191342
v 0.490393 2.000000 -0.097545
v 0.500000 2.000000 0.000000
v 0.490393 2.000000 0.097545
v 0.461940 2.000000 0.191342
v 0.415735 2.000000 0.277785
v 0.353553 2.000000 0.353553
v 0.277785 2.000000 0.415735
v 0.191342 2.000000 0.461940
v 0.097545 2.000000 0.490393
v -0.000000 2.000000 0.500000
v -0.097545 2.000000 0.490393
v -0.191342 2.000000 0.461940
v -0.277785 2.000000 0.415735
v -0.353554 2.000000 0.353553
v -0.415735 2.000000 0.277785
v -0.461940 2.000000 0.191341
v 0.000000 3.000000 0.000000
v -0.490393 2.000000 0.097545
v -0.500000 2.000000 -0.000000
v -0.490393 2.000000 -0.097546
v -0.461940 2.000000 -0.191342
v -0.415734 2.000000 -0.277786
v -0.353553 2.000000 -0.353554
v -0.277785 2.000000 -0.415735
v -0.191341 2.000000 -0.461940
v -0.097544 2.000000 -0.490393
v 0.138893 2.500000 0.207868
vt 0.250000 0.490000
vt 0.250000 0.250000
vt 0.296822 0.485388
vt 0.341844 0.471731
vt 0.383337 0.449553
vt 0.419706 0.419706
vt 0.449553 0.383337
vt 0.471731 0.341844
vt 0.485388 0.296822
vt 0.490000 0.250000
vt 0.485388 0.203178
vt 0.471731 0.158156
vt 0.449553 0.116663
vt 0.419706 0.080294
vt 0.316668 0.150224
vt 0.383337 0.050447
vt 0.341844 0.028269
vt 0.296822 0.014612
vt 0.250000 0.010000
vt 0.203178 0.014612
vt 0.158156 0.028269
vt 0.116663 0.050447
vt 0.080294 0.080294
vt 0.050447 0.116663
vt 0.028269 0.158156
vt 0.014611 0.203179
vt 0.010000 0.250000
vt 0.014612 0.296822
vt 0.028269 0.341844
vt 0.050447 0.383337
vt 0.080295 0.419706
vt 0.116663 0.449553
vt 0.158156 0.471731
vt 0.203179 0.485389
vt 0.750000 0.490000
vt 0.796822 0.485388
vt 0.841844 0.471731
vt 0.883337 0.449553
vt 0.919706 0.419706
vt 0.949553 0.383337
vt 0.971731 0.341844
vt 0.985388 0.296822
vt 0.990000 0.250000
vt 0.985388 0.203178
vt 0.971731 0.158156
vt 0.949553 0.116663
vt 0.919706 0.080294
vt 0.883337 0.050447
vt 0.841844 0.028269
vt 0.796822 0.014612
vt 0.750000 0.010000
vt 0.703178 0.014612
vt 0.658156 0.028269
vt 0.616663 0.050447
vt 0.580294 0.080294
vt 0.550447 0.116663
vt 0.528269 0.158156
vt 0.514611 0.203179
vt 0.510000 0.250000
vt 0.514612 0.296822
vt 0.528269 0.341844
vt 0.550447 0.383337
vt 0.580295 0.419706
vt 0.616663 0.449553
vt 0.658156 0.471731
vt 0.703179 0.485389
vn 0.0000 -0.5033 -0.8641
vn 0.0000 1.0000 0.0000
vn 0.1686 -0.5033 -0.8475
vn 0.3307 -0.5033 -0.7983
vn 0.4801 -0.5033 -0.7185
vn 0.6110 -0.5033 -0.6110
vn 0.7185 -0.5033 -0.4801
vn 0.7983 -0.5033 -0.3307
vn 0.8475 -0.5033 -0.1686
vn 0.8641 -0.5033 0.0000
vn 0.8475 -0.5033 0.1686
vn 0.7983 -0.5033 0.3307
vn 0.7185 -0.5033 0.4801
vn 0.6110 -0.5033 0.6110
vn 0.4969 0.4472 0.7437
vn 0.4801 -0.5033 0.7185
vn 0.3307 -0.5033 0.7983
vn 0.1686 -0.5033 0.8475
vn 0.0000 -0.5033 0.8641
vn -0.1686 -0.5033 0.8475
vn -0.3307 -0.5033 0.7983
vn -0.4801 -0.5033 0.7185
vn -0.6110 -0.5033 0.6110
vn -0.7185 -0.5033 0.4801
vn -0.7983 -0.5033 0.3307
vn -0.8475 -0.5033 0.1686
vn -0.8641 -0.5033 0.0000
vn -0.8475 -0.5033 -0.1686
vn -0.7983 -0.5033 -0.3307
vn -0.7185 -0.5033 -0.4801
vn -0.6110 -0.5033 -0.6110
vn -0.4801 -0.5033 -0.7185
vn -0.3307 -0.5033 -0.7983
vn -0.1686 -0.5033 -0.8475
usemtl 材质.002
s 1
f 1/1/1 24/2/2 2/3/3
f 2/3/3 24/2/2 3/4/4
f 3/4/4 24/2/2 4/5/5
f 4/5/5 24/2/2 5/6/6
f 5/6/6 24/2/2 6/7/7
f 6/7/7 24/2/2 7/8/8
f 7/8/8 24/2/2 8/9/9
f 8/9/9 24/2/2 9/10/10
f 9/10/10 24/2/2 10/11/11
f 10/11/11 24/2/2 11/12/12
f 11/12/12 24/2/2 12/13/13
f 12/13/13 24/2/2 13/14/14
f 13/14/14 24/2/2 34/15/15 14/16/16
f 14/16/16 34/15/15 24/2/2 15/17/17
f 15/17/17 24/2/2 16/18/18
f 16/18/18 24/2/2 17/19/19
f 17/19/19 24/2/2 18/20/20
f 18/20/20 24/2/2 19/21/21
f 19/21/21 24/2/2 20/22/22
f 20/22/22 24/2/2 21/23/23
f 21/23/23 24/2/2 22/24/24
f 22/24/24 24/2/2 23/25/25
f 23/25/25 24/2/2 25/26/26
f 25/26/26 24/2/2 26/27/27
f 26/27/27 24/2/2 27/28/28
f 27/28/28 24/2/2 28/29/29
f 28/29/29 24/2/2 29/30/30
f 29/30/30 24/2/2 30/31/31
f 30/31/31 24/2/2 31/32/32
f 31/32/32 24/2/2 32/33/33
f 32/33/33 24/2/2 33/34/34
f 33/34/34 24/2/2 1/1/1
f 1/35/1 2/36/3 3/37/4 4/38/5 5/39/6 6/40/7 7/41/8 8/42/9 9/43/10 10/44/11 11/45/12 12/46/13 13/47/14 14/48/16 15/49/17 16/50/18 17/51/19 18/52/20 19/53/21 20/54/22 21/55/23 22/56/24 23/57/25 25/58/26 26/59/27 27/60/28 28/61/29 29/62/30 30/63/31 31/64/32 32/65/33 33/66/34
o 柱体
v 0.000000 0.000000 -0.125000
v 0.000000 2.000000 -0.125000
v 0.024386 0.000000 -0.122598
v 0.024386 2.000000 -0.122598
v 0.047835 0.000000 -0.115485
v 0.047835 2.000000 -0.115485
v 0.069446 0.000000 -0.103934
v 0.069446 2.000000 -0.103934
v 0.088388 0.000000 -0.088388
v 0.088388 2.000000 -0.088388
v 0.103934 0.000000 -0.069446
v 0.103934 2.000000 -0.069446
v 0.115485 0.000000 -0.047835
v 0.115485 2.000000 -0.047835
v 0.122598 0.000000 -0.024386
v 0.122598 2.000000 -0.024386
v 0.125000 0.000000 -0.000000
v 0.125000 2.000000 0.000000
v 0.122598 0.000000 0.024386
v 0.122598 2.000000 0.024386
v 0.115485 0.000000 0.047835
v 0.115485 2.000000 0.047836
v 0.103934 0.000000 0.069446
v 0.103934 2.000000 0.069446
v 0.088388 0.000000 0.088388
v 0.088388 2.000000 0.088388
v 0.069446 0.000000 0.103934
v 0.069446 2.000000 0.103934
v 0.047835 0.000000 0.115485
v 0.047835 2.000000 0.115485
v 0.024386 0.000000 0.122598
v 0.024386 2.000000 0.122598
v -0.000000 0.000000 0.125000
v -0.000000 2.000000 0.125000
v -0.024386 0.000000 0.122598
v -0.024386 2.000000 0.122598
v -0.047835 0.000000 0.115485
v -0.047835 2.000000 0.115485
v -0.069446 0.000000 0.103934
v -0.069446 2.000000 0.103934
v -0.088388 0.000000 0.088388
v -0.088388 2.000000 0.088388
v -0.103934 0.000000 0.069446
v -0.103934 2.000000 0.069446
v -0.115485 0.000000 0.047835
v -0.115485 2.000000 0.047835
v -0.122598 0.000000 0.024386
v -0.122598 2.000000 0.024386
v -0.125000 0.000000 -0.000000
v -0.125000 2.000000 -0.000000
v -0.122598 0.000000 -0.024386
v -0.122598 2.000000 -0.024386
v -0.115485 0.000000 -0.047836
v -0.115485 2.000000 -0.047835
v -0.103934 0.000000 -0.069446
v -0.103934 2.000000 -0.069446
v -0.088388 0.000000 -0.088388
v -0.088388 2.000000 -0.088388
v -0.069446 0.000000 -0.103934
v -0.069446 2.000000 -0.103934
v -0.047835 0.000000 -0.115485
v -0.047835 2.000000 -0.115485
v -0.024386 0.000000 -0.122598
v -0.024386 2.000000 -0.122598
vt 1.000000 0.500000
vt 1.000000 1.000000
vt 0.968750 1.000000
vt 0.968750 0.500000
vt 0.937500 1.000000
vt 0.937500 0.500000
vt 0.906250 1.000000
vt 0.906250 0.500000
vt 0.875000 1.000000
vt 0.875000 0.500000
vt 0.843750 1.000000
vt 0.843750 0.500000
vt 0.812500 1.000000
vt 0.812500 0.500000
vt 0.781250 1.000000
vt 0.781250 0.500000
vt 0.750000 1.000000
vt 0.750000 0.500000
vt 0.718750 1.000000
vt 0.718750 0.500000
vt 0.687500 1.000000
vt 0.687500 0.500000
vt 0.656250 1.000000
vt 0.656250 0.500000
vt 0.625000 1.000000
vt 0.625000 0.500000
vt 0.593750 1.000000
vt 0.593750 0.500000
vt 0.562500 1.000000
vt 0.562500 0.500000
vt 0.531250 1.000000
vt 0.531250 0.500000
vt 0.500000 1.000000
vt 0.500000 0.500000
vt 0.468750 1.000000
vt 0.468750 0.500000
vt 0.437500 1.000000
vt 0.437500 0.500000
vt 0.406250 1.000000
vt 0.406250 0.500000
vt 0.375000 1.000000
vt 0.375000 0.500000
vt 0.343750 1.000000
vt 0.343750 0.500000
vt 0.312500 1.000000
vt 0.312500 0.500000
vt 0.281250 1.000000
vt 0.281250 0.500000
vt 0.250000 1.000000
vt 0.250000 0.500000
vt 0.218750 1.000000
vt 0.218750 0.500000
vt 0.187500 1.000000
vt 0.187500 0.500000
vt 0.156250 1.000000
vt 0.156250 0.500000
vt 0.125000 1.000000
vt 0.125000 0.500000
vt 0.093750 1.000000
vt 0.093750 0.500000
vt 0.062500 1.000000
vt 0.062500 0.500000
vt 0.296822 0.485388
vt 0.250000 0.490000
vt 0.203179 0.485389
vt 0.158156 0.471731
vt 0.116663 0.449553
vt 0.080295 0.419706
vt 0.050447 0.383337
vt 0.028269 0.341844
vt 0.014612 0.296822
vt 0.010000 0.250000
vt 0.014611 0.203179
vt 0.028269 0.158156
vt 0.050447 0.116663
vt 0.080294 0.080294
vt 0.116663 0.050447
vt 0.158156 0.028269
vt 0.203178 0.014612
vt 0.250000 0.010000
vt 0.296822 0.014612
vt 0.341844 0.028269
vt 0.383337 0.050447
vt 0.419706 0.080294
vt 0.449553 0.116663
vt 0.471731 0.158156
vt 0.485388 0.203178
vt 0.490000 0.250000
vt 0.485388 0.296822
vt 0.471731 0.341844
vt 0.449553 0.383337
vt 0.419706 0.419706
vt 0.383337 0.449553
vt 0.341844 0.471731
vt 0.031250 1.000000
vt 0.031250 0.500000
vt 0.000000 1.000000
vt 0.000000 0.500000
vt 0.750000 0.490000
vt 0.796822 0.485388
vt 0.841844 0.471731
vt 0.883337 0.449553
vt 0.919706 0.419706
vt 0.949553 0.383337
vt 0.971731 0.341844
vt 0.985388 0.296822
vt 0.990000 0.250000
vt 0.985388 0.203178
vt 0.971731 0.158156
vt 0.949553 0.116663
vt 0.919706 0.080294
vt 0.883337 0.050447
vt 0.841844 0.028269
vt 0.796822 0.014612
vt 0.750000 0.010000
vt 0.703178 0.014612
vt 0.658156 0.028269
vt 0.616663 0.050447
vt 0.580294 0.080294
vt 0.550447 0.116663
vt 0.528269 0.158156
vt 0.514611 0.203179
vt 0.510000 0.250000
vt 0.514612 0.296822
vt 0.528269 0.341844
vt 0.550447 0.383337
vt 0.580295 0.419706
vt 0.616663 0.449553
vt 0.658156 0.471731
vt 0.703179 0.485389
vn 0.0000 -0.6857 -0.7279
vn 0.0000 0.6857 -0.7279
vn 0.1420 0.6857 -0.7139
vn 0.1420 -0.6857 -0.7139
vn 0.2785 0.6857 -0.6725
vn 0.2785 -0.6857 -0.6725
vn 0.4044 0.6857 -0.6052
vn 0.4044 -0.6857 -0.6052
vn 0.5147 0.6857 -0.5147
vn 0.5147 -0.6857 -0.5147
vn 0.6052 0.6857 -0.4044
vn 0.6052 -0.6857 -0.4044
vn 0.6725 0.6857 -0.2785
vn 0.6725 -0.6857 -0.2785
vn 0.7139 0.6857 -0.1420
vn 0.7139 -0.6857 -0.1420
vn 0.7279 0.6857 0.0000
vn 0.7279 -0.6857 0.0000
vn 0.7139 0.6857 0.1420
vn 0.7139 -0.6857 0.1420
vn 0.6725 0.6857 0.2785
vn 0.6725 -0.6857 0.2785
vn 0.6052 0.6857 0.4044
vn 0.6052 -0.6857 0.4044
vn 0.5147 0.6857 0.5147
vn 0.5147 -0.6857 0.5147
vn 0.4044 0.6857 0.6052
vn 0.4044 -0.6857 0.6052
vn 0.2785 0.6857 0.6725
vn 0.2785 -0.6857 0.6725
vn 0.1420 0.6857 0.7139
vn 0.1420 -0.6857 0.7139
vn 0.0000 0.6857 0.7279
vn 0.0000 -0.6857 0.7279
vn -0.1420 0.6857 0.7139
vn -0.1420 -0.6857 0.7139
vn -0.2785 0.6857 0.6725
vn -0.2785 -0.6857 0.6725
vn -0.4044 0.6857 0.6052
vn -0.4044 -0.6857 0.6052
vn -0.5147 0.6857 0.5147
vn -0.5147 -0.6857 0.5147
vn -0.6052 0.6857 0.4044
vn -0.6052 -0.6857 0.4044
vn -0.6725 0.6857 0.2785
vn -0.6725 -0.6857 0.2785
vn -0.7139 0.6857 0.1420
vn -0.7139 -0.6857 0.1420
vn -0.7279 0.6857 0.0000
vn -0.7279 -0.6857 0.0000
vn -0.7139 0.6857 -0.1420
vn -0.7139 -0.6857 -0.1420
vn -0.6725 0.6857 -0.2785
vn -0.6725 -0.6857 -0.2785
vn -0.6052 0.6857 -0.4044
vn -0.6052 -0.6857 -0.4044
vn -0.5147 0.6857 -0.5147
vn -0.5147 -0.6857 -0.5147
vn -0.4044 0.6857 -0.6052
vn -0.4044 -0.6857 -0.6052
vn -0.2785 0.6857 -0.6725
vn -0.2785 -0.6857 -0.6725
vn -0.1420 0.6857 -0.7139
vn -0.1420 -0.6857 -0.7139
usemtl None
s 1
f 35/67/35 36/68/36 38/69/37 37/70/38
f 37/70/38 38/69/37 40/71/39 39/72/40
f 39/72/40 40/71/39 42/73/41 41/74/42
f 41/74/42 42/73/41 44/75/43 43/76/44
f 43/76/44 44/75/43 46/77/45 45/78/46
f 45/78/46 46/77/45 48/79/47 47/80/48
f 47/80/48 48/79/47 50/81/49 49/82/50
f 49/82/50 50/81/49 52/83/51 51/84/52
f 51/84/52 52/83/51 54/85/53 53/86/54
f 53/86/54 54/85/53 56/87/55 55/88/56
f 55/88/56 56/87/55 58/89/57 57/90/58
f 57/90/58 58/89/57 60/91/59 59/92/60
f 59/92/60 60/91/59 62/93/61 61/94/62
f 61/94/62 62/93/61 64/95/63 63/96/64
f 63/96/64 64/95/63 66/97/65 65/98/66
f 65/98/66 66/97/65 68/99/67 67/100/68
f 67/100/68 68/99/67 70/101/69 69/102/70
f 69/102/70 70/101/69 72/103/71 71/104/72
f 71/104/72 72/103/71 74/105/73 73/106/74
f 73/106/74 74/105/73 76/107/75 75/108/76
f 75/108/76 76/107/75 78/109/77 77/110/78
f 77/110/78 78/109/77 80/111/79 79/112/80
f 79/112/80 80/111/79 82/113/81 81/114/82
f 81/114/82 82/113/81 84/115/83 83/116/84
f 83/116/84 84/115/83 86/117/85 85/118/86
f 85/118/86 86/117/85 88/119/87 87/120/88
f 87/120/88 88/119/87 90/121/89 89/122/90
f 89/122/90 90/121/89 92/123/91 91/124/92
f 91/124/92 92/123/91 94/125/93 93/126/94
f 93/126/94 94/125/93 96/127/95 95/128/96
f 38/129/37 36/130/36 98/131/97 96/132/95 94/133/93 92/134/91 90/135/89 88/136/87 86/137/85 84/138/83 82/139/81 80/140/79 78/141/77 76/142/75 74/143/73 72/144/71 70/145/69 68/146/67 66/147/65 64/148/63 62/149/61 60/150/59 58/151/57 56/152/55 54/153/53 52/154/51 50/155/49 48/156/47 46/157/45 44/158/43 42/159/41 40/160/39
f 95/128/96 96/127/95 98/161/97 97/162/98
f 97/162/98 98/161/97 36/163/36 35/164/35
f 35/165/35 37/166/38 39/167/40 41/168/42 43/169/44 45/170/46 47/171/48 49/172/50 51/173/52 53/174/54 55/175/56 57/176/58 59/177/60 61/178/62 63/179/64 65/180/66 67/181/68 69/182/70 71/183/72 73/184/74 75/185/76 77/186/78 79/187/80 81/188/82 83/189/84 85/190/86 87/191/88 89/192/90 91/193/92 93/194/94 95/195/96 97/196/98
